<?xml version="1.0" encoding="UTF-8" standalone="no"?>
<svg
   xmlns:dc="http://purl.org/dc/elements/1.1/"
   xmlns:cc="http://creativecommons.org/ns#"
   xmlns:rdf="http://www.w3.org/1999/02/22-rdf-syntax-ns#"
   xmlns:svg="http://www.w3.org/2000/svg"
   xmlns="http://www.w3.org/2000/svg"
   xmlns:sodipodi="http://sodipodi.sourceforge.net/DTD/sodipodi-0.dtd"
   xmlns:inkscape="http://www.inkscape.org/namespaces/inkscape"
   height="141.61305"
   id="Layer_1"
   version="1.1"
   viewBox="0 0 649.54633 141.61305"
   width="649.54633"
   xml:space="preserve"
   inkscape:version="0.91 r13725"
   sodipodi:docname="delorean.svg"><metadata
     id="metadata360"><rdf:RDF><cc:Work
         rdf:about=""><dc:format>image/svg+xml</dc:format><dc:type
           rdf:resource="http://purl.org/dc/dcmitype/StillImage" /><dc:title></dc:title></cc:Work></rdf:RDF></metadata><defs
     id="defs358" /><sodipodi:namedview
     pagecolor="#ffffff"
     bordercolor="#666666"
     borderopacity="1"
     objecttolerance="10"
     gridtolerance="10"
     guidetolerance="10"
     inkscape:pageopacity="0"
     inkscape:pageshadow="2"
     inkscape:window-width="1600"
     inkscape:window-height="847"
     id="namedview356"
     showgrid="false"
     fit-margin-top="0"
     fit-margin-left="0"
     fit-margin-right="0"
     fit-margin-bottom="0"
     inkscape:zoom="0.65186406"
     inkscape:cx="-12.051901"
     inkscape:cy="55.193826"
     inkscape:window-x="0"
     inkscape:window-y="0"
     inkscape:window-maximized="1"
     inkscape:current-layer="g278" /><g
     id="g278"
     transform="translate(-260.1515,-180.94037)"><g
       transform="matrix(-1,0,0,1,928.2848,-4.4606297)"
       id="g282"><path
         inkscape:connector-curvature="0"
         d="m 378.638,213.617 -3.185,-2.553 c 3.125,-3.899 7.159,-10.659 6.337,-13.477 -0.116,-0.371 -0.334,-0.798 -1.184,-1.091 -5.144,-1.764 -23.389,5.589 -33.672,10.645 l -1.802,-3.672 c 2.883,-1.407 28.371,-13.742 36.802,-10.831 1.94,0.668 3.249,1.987 3.783,3.812 1.686,5.849 -5.598,15.329 -7.079,17.167 z"
         style="fill:#231f20"
         id="path284" /><path
         inkscape:connector-curvature="0"
         d="m 414.506,215.748 c 1.431,-0.009 59.155,-30.347 59.155,-30.347 0,0 4.555,12.075 5.553,22.975 0.984,10.905 -0.599,28.695 -0.599,28.695 l -64.109,-21.323 z"
         id="path286" /><path
         inkscape:connector-curvature="0"
         d="m 25.755,267.195 10.209,-17.84 139.647,-17 77.953,-31.815 92.465,1.003 c 0,0 55.808,8.83 79.526,13.872 23.723,5.051 54.141,15.046 54.141,15.046 l 9.002,23.932 3.431,0.673 0.056,14.382 -24.577,20.645 -34.894,7.67 -82.851,7.869 -197.933,0.788 -72.604,-3.139 -39.735,-1.207 -8.965,-17.775 -4.871,-17.104 z"
         style="fill:#d1d1d1"
         id="path288" /><polygon
         points="492.185,269.447 492.139,257.832 30.05,259.675 25.755,267.195 30.625,284.299 39.59,302.074 79.325,303.281 151.93,306.42 349.863,305.631 432.714,297.762 467.607,290.092 "
         style="fill:#b6b8b7"
         id="polygon290" /><path
         inkscape:connector-curvature="0"
         d="m 25.755,267.195 10.209,-17.84 139.647,-17 77.953,-31.815 92.465,1.003 c 0,0 55.808,8.83 79.526,13.872 23.723,5.051 54.141,15.046 54.141,15.046 l 9.002,23.932 3.431,0.673 0.056,14.382 -24.577,20.645 -34.894,7.67 -82.851,7.869 -197.933,0.788 -72.604,-3.139 -39.735,-1.207 -8.965,-17.775 -4.871,-17.104 z"
         style="fill:#d1d1d1"
         id="path292" /><polygon
         points="492.185,269.447 492.139,257.832 30.05,259.675 25.755,267.195 30.625,284.299 39.59,302.074 79.325,303.281 151.93,306.42 349.863,305.631 432.714,297.762 467.607,290.092 "
         style="fill:#b6b8b7"
         id="polygon294" /><polygon
         points="349.863,305.631 432.714,297.762 457.923,292.219 66.939,293.778 30.041,283.871 39.59,302.074 79.325,303.281 151.93,306.42 "
         style="fill:#251f1f"
         id="polygon296" /><polygon
         points="68.262,285.687 19.762,283.291 18.587,267.01 68.202,269.772 "
         style="fill:#676767"
         id="polygon298" /><g
         id="g300"><path
           inkscape:connector-curvature="0"
           d="m 146.888,293.579 c 0.069,18.291 -14.694,33.188 -32.995,33.263 -18.301,0.075 -33.185,-14.707 -33.259,-32.998 -0.074,-18.296 14.698,-33.185 32.999,-33.259 18.292,-0.074 33.181,14.698 33.255,32.994 z"
           style="fill:#251f1f"
           id="path302" /><path
           inkscape:connector-curvature="0"
           d="m 138.007,293.616 c 0.056,13.389 -10.761,24.284 -24.146,24.34 -13.389,0.051 -24.294,-10.757 -24.346,-24.146 -0.051,-13.389 10.762,-24.289 24.15,-24.34 13.386,-0.055 24.286,10.758 24.342,24.146 z"
           style="fill:#c2c2c2"
           id="path304" /><path
           inkscape:connector-curvature="0"
           d="m 130.226,293.648 c 0.037,9.095 -7.307,16.499 -16.402,16.536 -9.095,0.037 -16.5,-7.312 -16.537,-16.406 -0.037,-9.1 7.312,-16.499 16.407,-16.536 9.095,-0.037 16.495,7.307 16.532,16.406 z"
           style="fill:#efefef"
           id="path306" /></g><path
         inkscape:connector-curvature="0"
         d="m 194.451,233.831 c 3.324,-1.119 57.261,-27.251 57.261,-27.251 l 71.449,0.088 0.111,27.762 -127.702,1.987 -1.119,-2.586 z"
         style="fill:#251f1f"
         id="path308" /><path
         inkscape:connector-curvature="0"
         d="m 166.633,292.841 c -1.04,-1.389 -2.47,-4.229 -4.132,-7.53 -7.052,-14.029 -18.867,-37.511 -43.259,-38.397 -21.992,-0.794 -30.641,5.933 -35.265,9.554 -0.51,0.413 -1.151,0.896 -1.513,1.142 -0.915,-0.01 -2.224,-0.037 -3.747,-0.07 -8.333,-0.171 -14.935,-0.246 -17.725,0.433 -5.111,1.248 -7.479,8.23 -8.245,11.174 l 7.888,2.089 c 0.585,-2.187 1.773,-4.702 2.521,-5.371 2.381,-0.432 11.453,-0.241 15.39,-0.158 1.89,0.037 3.468,0.075 4.42,0.07 2.396,-0.01 4.164,-1.402 6.044,-2.879 3.802,-2.976 10.891,-8.537 29.935,-7.827 19.563,0.719 30.019,21.495 36.258,33.909 1.917,3.802 3.426,6.801 4.912,8.773 2.572,3.403 5.859,6.235 9.327,8.598 l 18.129,-0.069 c -6.008,-2.141 -15.655,-6.45 -20.938,-13.441 z"
         style="fill:#231f20"
         id="path310" /><path
         inkscape:connector-curvature="0"
         d="m 338.137,305.677 c 6.388,-7.516 10.659,-19.011 12.711,-34.363 2.321,-17.27 15.019,-24.958 26.138,-26.383 l -1.049,-8.101 c -14.113,1.82 -30.242,11.55 -33.181,33.402 -2.274,16.95 -7.465,28.728 -15.027,34.048 -0.836,0.6 -1.653,1.059 -2.461,1.448 l 12.869,-0.051 z"
         style="fill:#231f20"
         id="path312" /><path
         inkscape:connector-curvature="0"
         d="m 197.793,291.629 c 3.44,0.919 55.58,2.345 82.052,2.237 l 0,0 c 15.413,-0.06 16.981,-0.589 17.497,-0.766 5.859,-1.978 24.712,-25.548 28.144,-31.313 3.598,-6.063 9.438,-17.65 9.8,-22.961 0.241,-3.556 0.241,-24.034 0.214,-37.399 l -1.36,-0.009 c 0.023,13.347 0.023,33.848 -0.214,37.316 -0.32,4.81 -5.813,15.965 -9.614,22.358 -3.282,5.52 -21.922,28.871 -27.41,30.724 -0.691,0.237 -3.839,0.641 -17.061,0.691 0,0 0,0 -0.005,0 -27.688,0.112 -78.658,-1.378 -81.694,-2.195 -3.691,-0.989 -14.647,-17.827 -15.427,-24.985 -0.557,-5.145 -1.783,-24.568 -2.414,-34.884 l -1.328,0.543 c 0.636,10.432 1.838,29.396 2.386,34.494 0.798,7.319 11.866,24.918 16.434,26.149 z"
         style="fill:#231f20"
         id="path314" /><polygon
         points="28.364,262.632 492.147,260.784 492.134,256.699 30.709,258.537 "
         style="fill:#231f20"
         id="polygon316" /><polygon
         points="492.129,255.065 488.698,254.392 488.071,252.734 32.984,254.545 30.653,258.64 492.134,256.801 "
         style="fill:#fafafa;fill-opacity:0.77999998"
         id="polygon318" /><g
         id="g320"><path
           inkscape:connector-curvature="0"
           d="m 434.487,289.262 c 0.084,20.046 -16.109,36.363 -36.16,36.447 -20.047,0.079 -36.365,-16.114 -36.444,-36.16 -0.078,-20.051 16.105,-36.369 36.151,-36.447 20.056,-0.08 36.379,16.109 36.453,36.16 z"
           style="fill:#251f1f"
           id="path322" /><path
           inkscape:connector-curvature="0"
           d="m 424.757,289.299 c 0.056,14.67 -11.792,26.61 -26.472,26.67 -14.67,0.057 -26.611,-11.787 -26.667,-26.457 -0.06,-14.67 11.788,-26.619 26.458,-26.675 14.675,-0.061 26.62,11.791 26.681,26.462 z"
           style="fill:#c2c2c2"
           id="path324" /><path
           inkscape:connector-curvature="0"
           d="m 416.233,289.331 c 0.037,9.967 -8.014,18.082 -17.976,18.124 -9.973,0.037 -18.078,-8.013 -18.12,-17.98 -0.042,-9.967 8.008,-18.082 17.971,-18.119 9.973,-0.043 18.083,8.007 18.125,17.975 z"
           style="fill:#efefef"
           id="path326" /></g><path
         inkscape:connector-curvature="0"
         d="M 350.077,206.199"
         style="fill:#d1d1d1"
         id="path328" /><path
         inkscape:connector-curvature="0"
         d="m 455.787,234.216 c -0.511,3.426 -4.191,3.203 -4.191,3.203 l -95.817,-7.149 -11.745,-23.797 108.561,22.874 c -0.001,-0.001 3.805,0.783 3.192,4.869 z"
         id="path330" /><path
         inkscape:connector-curvature="0"
         d="m 368.88,228.343 c 0.014,2.953 -2.303,5.348 -5.177,5.357 l 0,0 c -2.869,0.014 -5.204,-2.363 -5.214,-5.316 l -0.042,-9.424 c -0.014,-2.953 2.308,-5.348 5.177,-5.362 l 0,0 c 2.869,-0.009 5.209,2.368 5.219,5.32 l 0.037,9.425 z"
         style="fill:#0776c7"
         id="path332" /><path
         inkscape:connector-curvature="0"
         d="m 383.243,231.003 c 0.015,2.953 -2.303,5.348 -5.176,5.362 l 0,0 c -2.865,0.009 -5.205,-2.368 -5.214,-5.32 l -0.037,-9.424 c -0.014,-2.948 2.308,-5.348 5.172,-5.357 l 0,0 c 2.873,-0.014 5.209,2.372 5.218,5.315 l 0.037,9.424 z"
         style="fill:#0776c7"
         id="path334" /><path
         inkscape:connector-curvature="0"
         d="m 397.612,233.673 c 0.014,2.948 -2.308,5.343 -5.177,5.357 l 0,0 c -2.869,0.009 -5.209,-2.368 -5.218,-5.316 l -0.037,-9.424 c -0.01,-2.948 2.303,-5.353 5.171,-5.362 l 0,0 c 2.879,-0.014 5.209,2.373 5.224,5.32 l 0.037,9.425 z"
         style="fill:#0776c7"
         id="path336" /><path
         inkscape:connector-curvature="0"
         d="m 345.188,197.954 c 0.005,1.323 -1.063,2.405 -2.391,2.41 l -19.238,0.079 c -1.328,0.004 -2.405,-1.068 -2.414,-2.391 l 0,0 c -0.005,-1.328 1.063,-2.414 2.391,-2.418 l 19.243,-0.079 c 1.328,-0.006 2.405,1.071 2.409,2.399 l 0,0 z"
         style="fill:#949494"
         id="path338" /><path
         inkscape:connector-curvature="0"
         d="m 342.157,189.05 c 0.005,1.648 -1.323,2.98 -2.967,2.985 l -11.318,0.046 c -1.644,0.005 -2.98,-1.318 -2.985,-2.962 l 0,0 c -0.009,-1.653 1.318,-2.985 2.962,-2.99 l 11.318,-0.046 c 1.644,-0.004 2.98,1.318 2.99,2.967 l 0,0 z"
         style="fill:#949494"
         id="path340" /><path
         inkscape:connector-curvature="0"
         d="m 336.335,192.689 c -0.009,-1.449 -1.179,-2.623 -2.637,-2.619 l 0,0 c -1.448,0.005 -2.618,1.188 -2.608,2.637 l 0.009,3.389 c 0.009,1.449 1.184,2.619 2.632,2.614 l 0,0 c 1.458,-0.004 2.623,-1.184 2.614,-2.632 l -0.01,-3.389 z"
         style="fill:#949494"
         id="path342" /><path
         inkscape:connector-curvature="0"
         d="m 488.698,254.392 -9.002,-23.932 c 0,0 -5.636,-1.857 -13.955,-4.368 l 0.26,64.358 1.606,-0.358 24.577,-20.645 -0.056,-14.382 -3.43,-0.673 z"
         style="fill:#d1d1d1"
         id="path344" /><rect
         height="12.079"
         style="fill:#251f1f"
         transform="matrix(1,-0.004,0.004,1,-1.0665,1.9256)"
         width="27.725"
         x="465.14899"
         y="260.51099"
         id="rect346" /><g
         id="g348"><path
           inkscape:connector-curvature="0"
           d="m 457.616,295.779 c -0.056,-1.477 -1.643,-36.764 -35.668,-47.205 -8.844,-2.711 -19.494,-2.878 -29.796,-3.041 -12.721,-0.2 -25.873,-0.409 -36.996,-5.269 -22.2,-9.721 -23.594,-41.406 -23.64,-42.748 l 13.603,-0.506 c 0.009,0.246 1.142,24.499 15.501,30.784 8.612,3.765 19.843,3.941 31.751,4.132 11.244,0.172 22.878,0.357 33.565,3.64 34.8,10.673 44.837,43.806 45.287,59.832 l -13.607,0.381 z"
           style="fill:#949494"
           id="path350" /><path
           inkscape:connector-curvature="0"
           d="m 339.692,202.48 c 0.014,0.242 1.146,24.499 15.51,30.784 8.607,3.76 19.848,3.941 31.746,4.123 11.244,0.181 22.878,0.367 33.574,3.644 31.328,9.61 42.545,37.39 44.81,54.54 l 5.892,-0.172 c -0.45,-16.025 -10.487,-49.159 -45.287,-59.832 -10.688,-3.282 -22.321,-3.468 -33.565,-3.64 -11.908,-0.19 -23.139,-0.367 -31.751,-4.132 -14.359,-6.286 -15.492,-30.538 -15.501,-30.784 l -13.603,0.506 c 0.009,0.311 0.098,2.293 0.511,5.241 l 7.664,-0.278 z"
           style="fill:#f6f6f6"
           id="path352" /></g></g><path
       inkscape:connector-curvature="0"
       d="m 271.0985,257.45543 c 7.943,-10.524 -0.976,-25.297 -0.976,-25.297 0,0 15.864,9.248 18.491,23.352 2.628,14.104 1.686,23.334 15.293,30.214 9.002,4.55 17.321,2.762 22.66,-3.937 5.339,-6.699 -6.146,-15.558 -5.841,-15.571 16.807,-0.669 27.289,16.421 36.003,22.382 9.74,6.666 14.796,3.449 16.467,-4.438 2.345,-11.105 -17.437,-33.515 -17.437,-33.515 0,0 23.063,4.735 42.813,30.167 6.352,8.181 26.54601,22.901 26.27701,0.976 -0.14,-10.905 -5.984,-19.536 -5.841,-19.467 24.095,11.519 30.391,42.104 44.764,45.738 14.363,3.635 17.414,4.317 22.377,1.945 4.967,-2.372 -4.912,-17.038 -4.731,-16.922 17.99,11.421 14.917,17.367 24.192,22.762 9.281,5.396 13.9,5.404 13.9,5.404 l -239.21001,0 c -9.169,-19.201 -15.984,-39.735 -20.148,-61.221 4.364,1.096 8.426,0.771 10.947,-2.572 z"
       style="fill:#ff9100"
       id="path255" /><path
       inkscape:connector-curvature="0"
       d="m 273.6425,263.10643 c 0,0 11.736,4.345 18.69,37.813 3.584,17.261 34.132,12.251 36.072,10.432 13.473,-12.604 4.912,-24.769 5.219,-24.772 16.806,-0.209 16.949,15.645 33.899,26.509 8.385,5.376 19.063,1.936 20.863,-0.432 8.255,-10.864 -6.086,-30.423 -6.086,-30.423 0,0 11.917,5.747 24.341,26.077 4.77701,7.822 22.45101,9.1 25.64101,3.041 4.345,-8.26 -4.489,-16.537 -4.351,-16.514 24.095,3.593 19.731,22.465 34.1,23.598 14.368,1.138 17.414,1.352 22.382,0.608 4.967,-0.743 5.079,-9.531 5.236,-9.429 6.087,3.908 4.949,9.568 14.225,11.253 9.278,1.681 13.897,1.686 13.897,1.686 l -236.85001,0 c -3.478,-7.178 -6.61,-14.545 -9.415,-22.075 5.034,-8.524 2.137,-37.372 2.137,-37.372 z"
       style="fill:#ffff00"
       id="path257" /></g></svg>