<?xml version="1.0" encoding="UTF-8" standalone="no"?>
<svg
   xmlns:dc="http://purl.org/dc/elements/1.1/"
   xmlns:cc="http://creativecommons.org/ns#"
   xmlns:rdf="http://www.w3.org/1999/02/22-rdf-syntax-ns#"
   xmlns:svg="http://www.w3.org/2000/svg"
   xmlns="http://www.w3.org/2000/svg"
   xmlns:sodipodi="http://sodipodi.sourceforge.net/DTD/sodipodi-0.dtd"
   xmlns:inkscape="http://www.inkscape.org/namespaces/inkscape"
   enable-background="new 0 0 56.693 56.693"
   height="49.25"
   id="Layer_1"
   version="1.1"
   viewBox="0 0 49.249999 49.249999"
   width="49.25"
   xml:space="preserve"
   inkscape:version="0.91 r13725"
   sodipodi:docname="rss.svg"><metadata
     id="metadata24"><rdf:RDF><cc:Work
         rdf:about=""><dc:format>image/svg+xml</dc:format><dc:type
           rdf:resource="http://purl.org/dc/dcmitype/StillImage" /><dc:title></dc:title></cc:Work></rdf:RDF></metadata><defs
     id="defs22" /><sodipodi:namedview
     pagecolor="#ffffff"
     bordercolor="#666666"
     borderopacity="1"
     objecttolerance="10"
     gridtolerance="10"
     guidetolerance="10"
     inkscape:pageopacity="0"
     inkscape:pageshadow="2"
     inkscape:window-width="1600"
     inkscape:window-height="847"
     id="namedview20"
     showgrid="false"
     fit-margin-top="0"
     fit-margin-left="0"
     fit-margin-right="0"
     fit-margin-bottom="0"
     inkscape:zoom="4.1627714"
     inkscape:cx="-30.627153"
     inkscape:cy="26.0585"
     inkscape:window-x="0"
     inkscape:window-y="0"
     inkscape:window-maximized="1"
     inkscape:current-layer="Layer_1" /><path
     d="M 24.625,0 C 11.025,0 0,11.025 0,24.625 0,38.227 11.024,49.25 24.625,49.25 38.227,49.25 49.25,38.227 49.25,24.625 49.25,11.025 38.226,0 24.625,0 Z m -7.637,35.735 c -1.788,0 -3.237,-1.451 -3.237,-3.238 0,-1.789 1.449,-3.238 3.237,-3.238 1.787,0 3.238,1.449 3.238,3.238 0,1.786 -1.451,3.238 -3.238,3.238 z m 8.123,0.021 c 0,-3.057 -1.182,-5.928 -3.33,-8.082 -2.143,-2.154 -4.992,-3.342 -8.028,-3.342 l 0,-4.674 c 8.84,0 16.03,7.223 16.03,16.098 l -4.672,0 z m 8.256,0.004 c 0,-10.867 -8.795,-19.711 -19.606,-19.711 l 0,-4.676 c 13.387,0 24.28,10.942 24.28,24.387 l -4.674,0 z"
     id="path18"
     inkscape:connector-curvature="0" /></svg>