<?xml version="1.0" encoding="UTF-8" standalone="no"?>
<svg
   xmlns:dc="http://purl.org/dc/elements/1.1/"
   xmlns:cc="http://creativecommons.org/ns#"
   xmlns:rdf="http://www.w3.org/1999/02/22-rdf-syntax-ns#"
   xmlns:svg="http://www.w3.org/2000/svg"
   xmlns="http://www.w3.org/2000/svg"
   xmlns:sodipodi="http://sodipodi.sourceforge.net/DTD/sodipodi-0.dtd"
   xmlns:inkscape="http://www.inkscape.org/namespaces/inkscape"
   height="320.03033"
   id="Layer_1"
   version="1.1"
   viewBox="0 0 384.00604 320.03033"
   width="384.00604"
   xml:space="preserve"
   inkscape:version="0.91 r13725"
   sodipodi:docname="folder.svg"><metadata
     id="metadata15"><rdf:RDF><cc:Work
         rdf:about=""><dc:format>image/svg+xml</dc:format><dc:type
           rdf:resource="http://purl.org/dc/dcmitype/StillImage" /><dc:title></dc:title></cc:Work></rdf:RDF></metadata><defs
     id="defs13" /><sodipodi:namedview
     pagecolor="#ffffff"
     bordercolor="#666666"
     borderopacity="1"
     objecttolerance="10"
     gridtolerance="10"
     guidetolerance="10"
     inkscape:pageopacity="0"
     inkscape:pageshadow="2"
     inkscape:window-width="640"
     inkscape:window-height="480"
     id="namedview11"
     showgrid="false"
     fit-margin-top="0"
     fit-margin-left="0"
     fit-margin-right="0"
     fit-margin-bottom="0"
     inkscape:zoom="0.4609375"
     inkscape:cx="191.97307"
     inkscape:cy="160"
     inkscape:window-x="0"
     inkscape:window-y="0"
     inkscape:window-maximized="0"
     inkscape:current-layer="Layer_1" /><g
     id="g3"
     transform="translate(-64.026931,-95.969677)"><path
       d="m 430.1,192 -348.2,0 c -17.7,0 -18.6,9.2 -17.6,20.5 l 13,183 c 0.9,11.2 3.5,20.5 21.1,20.5 l 316.2,0 c 18,0 20.1,-9.2 21.1,-20.5 l 12.1,-185.3 c 0.9,-11.2 0,-18.2 -17.7,-18.2 z"
       id="path5"
       inkscape:connector-curvature="0" /><g
       id="g7"><path
         d="m 426.2,143.3 c -0.5,-12.4 -4.5,-15.3 -15.1,-15.3 0,0 -121.4,0 -143.2,0 -21.8,0 -24.4,0.3 -40.9,-17.4 C 213.3,95.8 218.7,96 190.4,96 c -22.6,0 -75.3,0 -75.3,0 -17.4,0 -23.6,-1.5 -25.2,16.6 -1.5,16.7 -5,57.2 -5.5,63.4 l 343.4,0 -1.6,-32.7 z"
         id="path9"
         inkscape:connector-curvature="0" /></g></g></svg>