<svg id="SvgjsSvg1033" xmlns="http://www.w3.org/2000/svg" version="1.1" xmlns:xlink="http://www.w3.org/1999/xlink" xmlns:svgjs="http://svgjs.com/svgjs" width="238" height="28" viewBox="0 0 238 28"><title>Fill 1</title><desc>Created with Avocode.</desc><defs id="SvgjsDefs1034"></defs><path id="SvgjsPath1035" d="M122.4 137.82C121.98 137.82 121.63000000000001 137.47 121.63000000000001 137.04999999999998V126.00999999999999C121.63000000000001 125.58999999999999 121.98 125.24 122.4 125.24H127.32000000000001C130.9 125.24 133.79000000000002 127.47999999999999 133.93 131.21C133.79000000000002 135.02 130.9 137.82000000000002 127.36000000000001 137.82000000000002ZM120.82 149.18C121.19 149.18 121.61 148.99 121.63 148.66V140.79C121.63 140.37 121.97999999999999 140.01999999999998 122.39999999999999 140.01999999999998H128.35999999999999C132.91 140.01999999999998 136.67999999999998 136.51 136.67999999999998 131.71999999999997C136.67999999999998 131.62999999999997 136.67 131.54999999999998 136.67 131.45999999999998C136.67 131.36999999999998 136.67999999999998 131.27999999999997 136.67999999999998 131.2C136.67999999999998 126.47999999999999 132.90999999999997 122.99999999999999 128.32 122.99999999999999H119.78C119.35 122.99999999999999 119 123.34999999999998 119 123.76999999999998V148.35999999999999C119 148.86999999999998 119.5 149.17999999999998 119.93 149.17999999999998Z " fill="#404040" fill-opacity="1" transform="matrix(1,0,0,1,-119,-122)"></path><path id="SvgjsPath1036" d="M164.91 123H164.02H150.66000000000003H149.78000000000003C149.35000000000002 123 149.00000000000003 123.35 149.00000000000003 123.77V124.28999999999999V147.84V148.36C149.00000000000003 148.79000000000002 149.35000000000002 149.13000000000002 149.78000000000003 149.13000000000002H150.66000000000003H164.02000000000004H164.91000000000003C165.33 149.13000000000002 165.68000000000004 148.79000000000002 165.68000000000004 148.36V148.11V147.84C165.68000000000004 147.42000000000002 165.33000000000004 147.07 164.91000000000003 147.07H164.02000000000004H152.44000000000003C152.01000000000002 147.07 151.66000000000003 146.73 151.66000000000003 146.29999999999998V137.54C151.66000000000003 137.10999999999999 152.01000000000002 136.76999999999998 152.44000000000003 136.76999999999998H162.21000000000004H163.10000000000002C163.52 136.76999999999998 163.87000000000003 136.42 163.87000000000003 135.99999999999997V135.95999999999998C163.87000000000003 135.87999999999997 163.87000000000003 135.95999999999998 163.88000000000002 135.76C163.86 135.51 163.87000000000003 135.56 163.87000000000003 135.48V135.44C163.87000000000003 135.01 163.52000000000004 134.67 163.10000000000002 134.67H162.21000000000004H152.44000000000003C152.01000000000002 134.67 151.66000000000003 134.32999999999998 151.66000000000003 133.89999999999998V125.86999999999998C151.66000000000003 125.43999999999997 152.01000000000002 125.09999999999998 152.44000000000003 125.09999999999998H164.02000000000004H164.91000000000003C165.33 125.09999999999998 165.68000000000004 124.74999999999999 165.68000000000004 124.32999999999998V124.28999999999998V123.79999999999998V123.76999999999998C165.68000000000004 123.34999999999998 165.33000000000004 122.99999999999999 164.91000000000003 122.99999999999999 " fill="#404040" fill-opacity="1" transform="matrix(1,0,0,1,-119,-122)"></path><path id="SvgjsPath1037" d="M181.44 137.05C181.01 137.05 180.66 136.70000000000002 180.66 136.28V125.98C180.66 125.55 181.01 125.21000000000001 181.44 125.21000000000001H187.55C191.04000000000002 125.21000000000001 193.51000000000002 127.43 193.66000000000003 130.77C193.51000000000002 134.26000000000002 191.04000000000002 137.05 187.58 137.05ZM179.93 149.13C180.36 149.13 180.63 148.91 180.63 148.66V140.01999999999998C180.63 139.6 180.97 139.24999999999997 181.4 139.24999999999997H187.54C187.79 139.27999999999997 188.01999999999998 139.41999999999996 188.15 139.63999999999996L193.21 148.68999999999997C193.39000000000001 149.01999999999998 193.54000000000002 149.12999999999997 193.98000000000002 149.12999999999997H195.92000000000002C195.92000000000002 149.12999999999997 196.71 149.12999999999997 196.09 147.94999999999996L191.14000000000001 139.26999999999995L191.18 139.32999999999996C190.94 138.90999999999997 191.54000000000002 138.70999999999995 191.54000000000002 138.70999999999995C194.47000000000003 137.75999999999996 196.73000000000002 134.17999999999995 196.61 130.66999999999996C196.70000000000002 127.86999999999996 195.34 125.02999999999996 191.63000000000002 123.52999999999996C191.44000000000003 123.44999999999996 190.22000000000003 122.99999999999996 188.14000000000001 122.99999999999996H178.48000000000002C178.18 122.99999999999996 178.00000000000003 123.21999999999996 178.00000000000003 123.46999999999996V148.35999999999996C178.00000000000003 148.78999999999996 178.35000000000002 149.12999999999997 178.78000000000003 149.12999999999997Z " fill="#404040" fill-opacity="1" transform="matrix(1,0,0,1,-119,-122)"></path><path id="SvgjsPath1038" d="M211.66 149.13H212.03C212.4 149.13 212.63 148.91 212.63 148.66V148.13V138.51999999999998C212.63 138.1 212.98 137.76 213.4 137.76H223.5H224.39C224.95 137.76 224.86999999999998 137.1 224.86999999999998 136.69C224.86999999999998 136.69 224.86999999999998 136.68 224.86999999999998 136.67C224.87999999999997 136.5 224.86999999999998 136.32 224.86999999999998 136.17C224.86999999999998 135.91 224.64999999999998 135.69 224.39 135.69H223.5H213.4C212.98000000000002 135.69 212.63 135.35 212.63 134.92V125.86999999999999C212.63 125.43999999999998 212.98 125.1 213.4 125.1H225.02H225.91C226.32999999999998 125.1 226.68 124.75 226.68 124.33V124.28999999999999V123.8V123.77C226.68 123.35 226.33 123 225.91 123H225.02H211.66000000000003H210.78000000000003C210.35000000000002 123 210.00000000000003 123.35 210.00000000000003 123.77V124.28999999999999V147.84V148.36C210.00000000000003 148.79000000000002 210.35000000000002 149.13000000000002 210.78000000000003 149.13000000000002H211.15000000000003Z " fill="#404040" fill-opacity="1" transform="matrix(1,0,0,1,-119,-122)"></path><path id="SvgjsPath1039" d="M238.57 132.5C238.76999999999998 131.98 239 131.48 239.26999999999998 131.01C239.01 130.76999999999998 238.35999999999999 130.26 238.39999999999998 130.22C241.78999999999996 126.16 246.20999999999998 124.94 250.11999999999998 125.65C250.92 125.76 251.71999999999997 125.95 252.50999999999996 126.24000000000001C258.10999999999996 128.32000000000002 260.93999999999994 134.49 258.84 140.03C258.63 140.58 258.36999999999995 141.11 258.09 141.6C258.4 141.87 259.08 142.37 259.03999999999996 142.41C255.27999999999997 146.85999999999999 250.26999999999995 147.89 246.09999999999997 146.65C245.69999999999996 146.55 245.29999999999995 146.43 244.89999999999998 146.29C239.30999999999997 144.20999999999998 236.46999999999997 138.04 238.56999999999996 132.5ZM257.67 123C256.96000000000004 123.68 256.11 124.5 255.69000000000003 124.87C255.03000000000003 124.5 254.32000000000002 124.16000000000001 253.58 123.89C247.22 121.53 240.52 124.2 236.83 129.17C234.9 132.01999999999998 233.76000000000002 135.53 234.04000000000002 139.14C234.04000000000002 139.14 234.05 145.92999999999998 240.32000000000002 149.92999999999998C240.83 149.23 241.48000000000002 148.32999999999998 241.91000000000003 147.74999999999997C242.61 148.14999999999998 243.35000000000002 148.50999999999996 244.13000000000002 148.79999999999998C251.33 151.46999999999997 259.31 148.05999999999997 261.92 141.18999999999997C261.92 141.18999999999997 263.83000000000004 136.99999999999997 263.2 132.41999999999996C263.2 132.41999999999996 262.71 126.23999999999995 257.67 122.99999999999996Z " fill="#404040" fill-opacity="1" transform="matrix(1,0,0,1,-119,-122)"></path><path id="SvgjsPath1040" d="M277.44 137.05C277.01 137.05 276.66 136.70000000000002 276.66 136.28V125.98C276.66 125.55 277.01000000000005 125.21000000000001 277.44 125.21000000000001H283.55C287.04 125.21000000000001 289.51 127.43 289.66 130.77C289.51000000000005 134.26000000000002 287.04 137.05 283.58000000000004 137.05ZM275.93 149.13C276.36 149.13 276.63 148.91 276.63 148.66V140.01999999999998C276.63 139.6 276.98 139.24999999999997 277.4 139.24999999999997H283.53999999999996C283.78999999999996 139.27999999999997 284.02 139.41999999999996 284.15 139.63999999999996L289.2 148.68999999999997C289.39 149.01999999999998 289.53999999999996 149.12999999999997 289.97999999999996 149.12999999999997H291.91999999999996C291.91999999999996 149.12999999999997 292.71 149.12999999999997 292.09 147.94999999999996L287.14 139.26999999999995L287.18 139.32999999999996C286.94 138.90999999999997 287.54 138.70999999999995 287.54 138.70999999999995C290.47 137.75999999999996 292.73 134.17999999999995 292.61 130.66999999999996C292.7 127.86999999999996 291.34000000000003 125.02999999999996 287.63 123.52999999999996C287.44 123.44999999999996 286.21999999999997 122.99999999999996 284.14 122.99999999999996H274.47999999999996C274.17999999999995 122.99999999999996 273.99999999999994 123.21999999999996 273.99999999999994 123.46999999999996V148.35999999999996C273.99999999999994 148.78999999999996 274.34999999999997 149.12999999999997 274.7799999999999 149.12999999999997Z " fill="#404040" fill-opacity="1" transform="matrix(1,0,0,1,-119,-122)"></path><path id="SvgjsPath1041" d="M328.02 143.87C328.32 144.14000000000001 328.94 144.82 328.31 145.32C325.56 147.47 322.57 148.87 319.28000000000003 148.87C319.12 148.87 318.97 148.86 318.82000000000005 148.85C318.68000000000006 148.85999999999999 318.5400000000001 148.87 318.39000000000004 148.87C310.99000000000007 148.87 305.00000000000006 143.09 305.00000000000006 135.73000000000002C305.00000000000006 135.64000000000001 305.01000000000005 135.56000000000003 305.01000000000005 135.47000000000003C305.01000000000005 135.38000000000002 305.00000000000006 135.30000000000004 305.00000000000006 135.21000000000004C305.00000000000006 127.89000000000004 310.99000000000007 122.00000000000003 318.39000000000004 122.00000000000003C318.51000000000005 122.00000000000003 318.61000000000007 122.01000000000003 318.72 122.01000000000003C318.91 122.01000000000003 319.09000000000003 122.00000000000003 319.28000000000003 122.00000000000003C323.05 122.00000000000003 325.86 123.24000000000002 328.27000000000004 125.40000000000003C329.02000000000004 126.03000000000003 328.31000000000006 126.59000000000003 328.31000000000006 126.59000000000003L327.74000000000007 127.13000000000004C327.52000000000004 127.35000000000004 326.9100000000001 127.83000000000004 326.63000000000005 127.57000000000004C326.28000000000003 127.23000000000003 326.20000000000005 127.17000000000003 326.20000000000005 127.17000000000003L326.63000000000005 127.57000000000004C326.28000000000003 127.25000000000004 326.45000000000005 127.40000000000003 326.20000000000005 127.17000000000003C324.20000000000005 125.40000000000003 321.69000000000005 124.30000000000003 318.85 124.19000000000003C312.67 124.42000000000003 307.88 129.40000000000003 307.74 135.47000000000003C307.88 141.50000000000003 312.67 146.44000000000003 318.84000000000003 146.67000000000002C321.8 146.56 324.08000000000004 145.36 326.20000000000005 143.62C326.20000000000005 143.62 327.11000000000007 142.92000000000002 328.02000000000004 143.87 " fill="#404040" fill-opacity="1" transform="matrix(1,0,0,1,-119,-122)"></path><path id="SvgjsPath1042" d="M355.91 123H355.02000000000004H341.67H340.78000000000003C340.35 123 340.00000000000006 123.35 340.00000000000006 123.77V124.28999999999999V147.84V148.36C340.00000000000006 148.79000000000002 340.3500000000001 149.13000000000002 340.78000000000003 149.13000000000002H341.67H355.02000000000004H355.91C356.34000000000003 149.13000000000002 356.69 148.79000000000002 356.69 148.36V148.11V147.84C356.69 147.42000000000002 356.34 147.07 355.91 147.07H355.02000000000004H343.44000000000005C343.01000000000005 147.07 342.6600000000001 146.73 342.6600000000001 146.29999999999998V137.54C342.6600000000001 137.10999999999999 343.0100000000001 136.76999999999998 343.44000000000005 136.76999999999998H353.21000000000004H354.1C354.52000000000004 136.76999999999998 354.87 136.42 354.87 135.99999999999997V135.95999999999998C354.87 135.87999999999997 354.87 135.95999999999998 354.88 135.76C354.87 135.51 354.87 135.56 354.87 135.48V135.44C354.87 135.01 354.52 134.67 354.1 134.67H353.21000000000004H343.44000000000005C343.01000000000005 134.67 342.6600000000001 134.32999999999998 342.6600000000001 133.89999999999998V125.86999999999998C342.6600000000001 125.43999999999997 343.0100000000001 125.09999999999998 343.44000000000005 125.09999999999998H355.02000000000004H355.91C356.34000000000003 125.09999999999998 356.69 124.74999999999999 356.69 124.32999999999998V124.28999999999998V123.79999999999998V123.76999999999998C356.69 123.34999999999998 356.34 122.99999999999999 355.91 122.99999999999999 " fill="#404040" fill-opacity="1" transform="matrix(1,0,0,1,-119,-122)"></path></svg>